# xmcd CD database file
#
# Track frame offsets:
#	150
#	3595
#	19323
#	42933
#	62030
#	83300
#	102606
#	116868
#	133503
#	164782
#	184015
#	205135
#	224061
#	242193
#	258107
#	280133
#
# Disc length: 3795 seconds
#
# Revision: 0
# Processed by: cddbd v1.5.1PL0 Copyright (c) Steve Scherf et al.
# Submitted via: CDex 1.51
#
DISCID=ec0ed110
DTITLE=Mike Phillips - Uncommon Denominator
DYEAR=2005
DGENRE=Jazz
TTITLE0=Once Again Mike Phillips (Interlude)
TTITLE1=Uncommon Denominator
TTITLE2=Crazy
TTITLE3=Heartbeat of the City
TTITLE4=If it takes all night
TTITLE5=Minnie
TTITLE6=G-Money
TTITLE7=Don't Panic
TTITLE8=We are one
TTITLE9=Fiesta
TTITLE10=86th and Broadway
TTITLE11=Uptown on a Saturday Night
TTITLE12=Flow
TTITLE13=Brent's Bounce
TTITLE14=If u had a Heart
TTITLE15=Mike and Michaella (Interlude)
EXTD=YEAR: 2005
EXTT0=
EXTT1=
EXTT2=
EXTT3=
EXTT4=
EXTT5=
EXTT6=
EXTT7=
EXTT8=
EXTT9=
EXTT10=
EXTT11=
EXTT12=
EXTT13=
EXTT14=
EXTT15=
PLAYORDER=
